# xmcd
#
# Track frame offsets: 
#        150
#        19243
#        39906
#        73570
#        91825
#        107759
#        149940
#        169849
#        187331
#        206137
#        223220
#        246115
#        266856
#        286962
#        303289
#        320456
#        334934
#
# Disc length: 4786 seconds
#
# Revision: 1
# Processed by: cddbd v1.5.2PL0 Copyright (c) Steve Scherf et al.
# Submitted via: ExactAudioCopy v1.3
#
DISCID=1212b011
DTITLE=Various Artist - Akella Presents - vol.50 - Various Styles Of 
DTITLE=Blues  CD2
DYEAR=2015
DGENRE=Blues
TTITLE0=Bo Dollis and The Wild Magnolias - I Been Hoodood
TTITLE1=Leslie West - House of the Rising Sun
TTITLE2=Lazy Poker Blues Band - Downhome Blues
TTITLE3=Andy J. Forest - Voodoo Lips
TTITLE4=Joanne Shaw Taylor - Wrecking Ball
TTITLE5=Albert Collins - If Trouble Was Money
TTITLE6=Mick Abrahams - Medication Blues
TTITLE7=James 'Buddy' Rogers - Sweet Little Girl
TTITLE8=Keith Thompson's Strange Brew - Wotcha Doin' To Me
TTITLE9=Rick Vito - I Loved Another Woman
TTITLE10=Voronofff - She's My Fate
TTITLE11=Van Wilks - Crazy Inside
TTITLE12=James Hinkle - Some Day
TTITLE13=Hot and Nasty - Surrounding Blues
TTITLE14=Pat Boyack and The Prowlers - Mexican Vodka
TTITLE15=Jim Suhler - Dinosaur Wine
TTITLE16=Big Mike Griffin - Blues Will Never Die
EXTD=
EXTT0=
EXTT1=
EXTT2=
EXTT3=
EXTT4=
EXTT5=
EXTT6=
EXTT7=
EXTT8=
EXTT9=
EXTT10=
EXTT11=
EXTT12=
EXTT13=
EXTT14=
EXTT15=
EXTT16=
PLAYORDER=
